<svg xmlns="http://www.w3.org/2000/svg" width="25.422" height="24.93" viewBox="0 0 25.422 24.93"><defs><style>.a{fill:#3544e6;fill-rule:evenodd;}</style></defs><g transform="translate(0 0)"><path class="a" d="M22.956,5.346H21.8v-.67a3.467,3.467,0,0,0-4.414-3.328L4.155,5.126a1.156,1.156,0,0,0-.508.324A3.467,3.467,0,0,0,1,8.813V22.679a3.467,3.467,0,0,0,3.467,3.467H22.956a3.467,3.467,0,0,0,3.467-3.467V8.813a3.467,3.467,0,0,0-3.467-3.467Zm-4.934-1.78a1.156,1.156,0,0,1,1.468,1.156v.67H11.816ZM24.111,16.9H20.644a1.156,1.156,0,0,1,0-2.311h3.467Zm0-4.622H20.818a3.571,3.571,0,0,0-3.582,2.82,3.467,3.467,0,0,0,3.409,4.114h3.467v3.467a1.156,1.156,0,0,1-1.156,1.156H4.467a1.156,1.156,0,0,1-1.156-1.156V8.813A1.156,1.156,0,0,1,4.467,7.657H22.956a1.156,1.156,0,0,1,1.156,1.156Z" transform="translate(-1 -1.216)"/></g></svg>