<svg xmlns="http://www.w3.org/2000/svg" width="25.422" height="16.178" viewBox="0 0 25.422 16.178"><defs><style>.a{fill:#3544e6;}</style></defs><path class="a" d="M22.956,5H4.467A3.467,3.467,0,0,0,1,8.467v9.244a3.467,3.467,0,0,0,3.467,3.467H22.956a3.467,3.467,0,0,0,3.467-3.467V8.467A3.467,3.467,0,0,0,22.956,5ZM19.593,18.867H7.829a5.558,5.558,0,0,0-4.518-4.518V11.829A5.558,5.558,0,0,0,7.829,7.311H19.593a5.558,5.558,0,0,0,4.518,4.518v2.519a5.558,5.558,0,0,0-4.518,4.518ZM22.956,7.311a1.156,1.156,0,0,1,1.156,1.156V9.472A3.3,3.3,0,0,1,21.95,7.311Zm-17.484,0A3.3,3.3,0,0,1,3.311,9.472V8.467A1.156,1.156,0,0,1,4.467,7.311ZM4.467,18.867a1.156,1.156,0,0,1-1.156-1.156V16.706a3.3,3.3,0,0,1,2.161,2.161Zm17.484,0a3.3,3.3,0,0,1,2.161-2.161v1.005a1.156,1.156,0,0,1-1.156,1.156Z" transform="translate(-1 -5)"/><g transform="translate(9.637 4.299)"><path class="a" d="M12.807,8.72a3.467,3.467,0,1,0,3.467,3.467A3.467,3.467,0,0,0,12.807,8.72Zm0,4.622a1.156,1.156,0,1,1,1.156-1.156A1.156,1.156,0,0,1,12.807,13.342Z" transform="translate(-9.34 -8.72)"/></g></svg>