<svg id="chevron-right" xmlns="http://www.w3.org/2000/svg" xmlns:xlink="http://www.w3.org/1999/xlink" width="8" height="14" viewBox="0 0 8 14">
  <defs>
    <clipPath id="clip-path">
      <path id="Shape" d="M5.586,7,.293,12.293a1,1,0,0,0,1.414,1.414l6-6a1,1,0,0,0,0-1.414l-6-6A1,1,0,0,0,.293,1.707Z" transform="translate(8 5)"/>
    </clipPath>
  </defs>
  <g id="Group_42" data-name="Group 42" transform="translate(-8 -5)">
    <path id="Shape-2" data-name="Shape" d="M5.586,7,.293,12.293a1,1,0,0,0,1.414,1.414l6-6a1,1,0,0,0,0-1.414l-6-6A1,1,0,0,0,.293,1.707Z" transform="translate(8 5)"/>
    <g id="Mask_Group_42" data-name="Mask Group 42" clip-path="url(#clip-path)">
      <g id="COLOR_black" data-name="COLOR/ black">
        <rect id="Rectangle" width="24" height="24" fill="#0d0d0d"/>
      </g>
    </g>
  </g>
</svg>
