<svg xmlns="http://www.w3.org/2000/svg" width="20.561" height="23.118" viewBox="0 0 20.561 23.118"><defs><style>.a{fill:#E0E0E0;fill-rule:evenodd;}</style></defs><path class="a" d="M12.4,23.489a1.156,1.156,0,0,1-1.156,1.156H5.467A3.467,3.467,0,0,1,2,21.178V6.156a1.156,1.156,0,0,1,2.311,0V21.178a1.156,1.156,0,0,0,1.156,1.156h5.778A1.156,1.156,0,0,1,12.4,23.489Z" transform="translate(-2 -5)"/><path class="a" d="M2,6.156A1.156,1.156,0,0,1,3.156,5H8.933A3.467,3.467,0,0,1,12.4,8.467V23.489a1.156,1.156,0,1,1-2.311,0V8.467A1.156,1.156,0,0,0,8.933,7.311H3.156A1.156,1.156,0,0,1,2,6.156Z" transform="translate(8.161 -1.527)"/><path class="a" d="M1.549,10.908a1.156,1.156,0,0,1,0-1.641L4.207,6.621,1.549,3.975A1.16,1.16,0,1,1,3.19,2.334L6.241,5.4a1.722,1.722,0,0,1,0,2.45L3.19,10.908a1.156,1.156,0,0,1-1.641,0Z" transform="translate(4.564 11.868)"/><path class="a" d="M6.41,2.336a1.156,1.156,0,0,1,0,1.641L3.753,6.623,6.41,9.269A1.16,1.16,0,1,1,4.77,10.91L1.719,7.848a1.722,1.722,0,0,1,0-2.45L4.77,2.336a1.156,1.156,0,0,1,1.641,0Z" transform="translate(8.037 -1.994)"/></svg>