<svg id="ic-actions-emultiple-edit" xmlns="http://www.w3.org/2000/svg" width="24" height="24" viewBox="0 0 24 24">
  <rect id="Rectangle_39" data-name="Rectangle 39" width="24" height="24" fill="none"/>
  <g id="Layer" transform="translate(0.002)">
    <g id="ic-actions1-02">
      <path id="Path_88" data-name="Path 88" d="M19.84,11.1a1,1,0,0,0-1,1V17a1,1,0,0,1-1,1h-10a1,1,0,0,1-1-1V4a1,1,0,0,1,1-1h5a1,1,0,0,0,0-2h-5A3,3,0,0,0,5,3H4.84a3,3,0,0,0-3,3V20a3,3,0,0,0,3,3h10a3,3,0,0,0,3-3,3,3,0,0,0,3-3V12.1A1,1,0,0,0,19.84,11.1Zm-5,9.9h-10a1,1,0,0,1-1-1V6a1,1,0,0,1,1-1V17a3,3,0,0,0,3,3h8A1,1,0,0,1,14.84,21Z" fill="#575656" fill-rule="evenodd"/>
      <path id="Path_89" data-name="Path 89" d="M21.57,3,20.16,1.59a2,2,0,0,0-2.83,0l-6.51,6.5.14,4.1,4.11.14,6.5-6.5a2,2,0,0,0,0-2.83ZM19.8,4.77l-5.53,5.54-1.37-.05-.05-1.37,5.54-5.54a.57.57,0,0,1,.16-.11h.44a.53.53,0,0,1,.1.06l.7.71a.5.5,0,0,1,.01.76Z" fill="#575656" fill-rule="evenodd"/>
    </g>
  </g>
</svg>
