<svg xmlns="http://www.w3.org/2000/svg" width="21.976" height="21.018" viewBox="0 0 21.976 21.018">
  <g id="Layer" transform="translate(-0.928 -1.983)">
    <g id="Vrstva_106" data-name="Vrstva 106">
      <path id="Path_86" data-name="Path 86" d="M11.91,23H4a3,3,0,0,1-2.55-1.34A2.89,2.89,0,0,1,.93,20V14a.94.94,0,0,1,.59-.94.94.94,0,0,1,1.08.16,1,1,0,0,1,.33.77v5.94a1,1,0,0,0,.39.82.93.93,0,0,0,.58.2H19.84a1,1,0,0,0,1.07-1.08V14a1,1,0,0,1,1.99-.11.62.62,0,0,1,0,.13v5.89a3,3,0,0,1-3,3Z" fill="#575656"/>
      <path id="Path_87" data-name="Path 87" d="M11.14,15.89V3.09a1.15,1.15,0,0,1,.13-.6A1,1,0,0,1,13.14,3V15.89l.15-.12,2.45-2A1.022,1.022,0,0,1,17,15.38l-4.09,3.27a1.17,1.17,0,0,1-1.48,0L7.3,15.37a.987.987,0,0,1,1.26-1.52l1.77,1.42Z" fill="#575656"/>
    </g>
  </g>
</svg>
