<svg id="info" xmlns="http://www.w3.org/2000/svg" xmlns:xlink="http://www.w3.org/1999/xlink" width="22" height="22" viewBox="0 0 22 22">
  <defs>
    <clipPath id="clip-path">
      <path id="Combined_Shape" data-name="Combined Shape" d="M3.222,18.778A11,11,0,1,1,18.778,3.222,11,11,0,1,1,3.222,18.778ZM2,11a9,9,0,1,0,9-9A9.01,9.01,0,0,0,2,11Zm8,4V11a1,1,0,1,1,2,0v4a1,1,0,0,1-2,0Zm.293-6.293A1,1,0,1,1,11,9,1,1,0,0,1,10.293,8.708Z" transform="translate(1 1)" fill="#575656"/>
    </clipPath>
  </defs>
  <g id="Group_20" data-name="Group 20" transform="translate(-1 -1)">
    <path id="Combined_Shape-2" data-name="Combined Shape" d="M3.222,18.778A11,11,0,1,1,18.778,3.222,11,11,0,1,1,3.222,18.778ZM2,11a9,9,0,1,0,9-9A9.01,9.01,0,0,0,2,11Zm8,4V11a1,1,0,1,1,2,0v4a1,1,0,0,1-2,0Zm.293-6.293A1,1,0,1,1,11,9,1,1,0,0,1,10.293,8.708Z" transform="translate(1 1)" fill="#575656"/>
    <g id="Mask_Group_20" data-name="Mask Group 20" clip-path="url(#clip-path)">
      <g id="COLOR_black" data-name="COLOR/ black">
        <rect id="Rectangle" width="24" height="24" fill="#575656"/>
      </g>
    </g>
  </g>
</svg>
