<svg xmlns="http://www.w3.org/2000/svg" width="18" height="14.625" viewBox="0 0 18 14.625">
  <path id="twitter" d="M18,49.731a7.694,7.694,0,0,1-2.126.583,3.669,3.669,0,0,0,1.623-2.04,7.374,7.374,0,0,1-2.34.893,3.69,3.69,0,0,0-6.383,2.523,3.8,3.8,0,0,0,.085.842,10.445,10.445,0,0,1-7.606-3.86A3.691,3.691,0,0,0,2.387,53.6,3.644,3.644,0,0,1,.72,53.15v.041a3.707,3.707,0,0,0,2.956,3.626,3.683,3.683,0,0,1-.967.121,3.263,3.263,0,0,1-.7-.063,3.725,3.725,0,0,0,3.448,2.571A7.415,7.415,0,0,1,.883,61.02,6.912,6.912,0,0,1,0,60.969a10.389,10.389,0,0,0,5.661,1.656,10.431,10.431,0,0,0,10.5-10.5c0-.163-.006-.321-.014-.477A7.362,7.362,0,0,0,18,49.731Z" transform="translate(0 -48)" fill="#575656"/>
</svg>
