<svg id="ic-actions-download" xmlns="http://www.w3.org/2000/svg" width="24" height="24" viewBox="0 0 24 24">
  <rect id="Rectangle_38" data-name="Rectangle 38" width="24" height="24" fill="none"/>
  <g id="Layer" transform="translate(24.492 0.084) rotate(90)">
    <g id="Vrstva_106" data-name="Vrstva 106">
      <path id="Path_86" data-name="Path 86" d="M11.91,23H4a3,3,0,0,1-2.55-1.34A2.89,2.89,0,0,1,.93,20V14a.94.94,0,0,1,.59-.94.94.94,0,0,1,1.08.16,1,1,0,0,1,.33.77v5.94a1,1,0,0,0,.39.82.93.93,0,0,0,.58.2H19.84a1,1,0,0,0,1.07-1.08V14a1,1,0,0,1,1.99-.11.62.62,0,0,1,0,.13v5.89a3,3,0,0,1-3,3Z" fill="#575656"/>
      <path id="Path_87" data-name="Path 87" d="M11.14,5.006v12.8a1.15,1.15,0,0,0,.13.6,1,1,0,0,0,1.87-.51V5.006l.15.12,2.45,2A1.022,1.022,0,0,0,17,5.516l-4.09-3.27a1.17,1.17,0,0,0-1.48,0L7.3,5.526a.987.987,0,0,0,1.26,1.52l1.77-1.42Z" transform="translate(0 0)" fill="#575656"/>
    </g>
  </g>
</svg>
