<svg id="ic-contact-mail" xmlns="http://www.w3.org/2000/svg" width="24" height="24" viewBox="0 0 24 24">
  <rect id="Rectangle_87" data-name="Rectangle 87" width="24" height="24" fill="none"/>
  <g id="Layer">
    <g id="Vrstva_144" data-name="Vrstva 144">
      <path id="Path_159" data-name="Path 159" d="M20.34,4H3.66A3,3,0,0,0,1,7V17a3,3,0,0,0,3,3H20a3,3,0,0,0,3-3V7A3,3,0,0,0,20.34,4Zm-.46,2L13,12.88a1,1,0,0,1-1.41,0L4.71,6ZM21,17a1,1,0,0,1-1,1H4a1,1,0,0,1-1-1V7.41l6.88,6.88a3,3,0,0,0,4.24,0L21,7.41Z" fill="#575656"/>
    </g>
  </g>
</svg>
