<svg xmlns="http://www.w3.org/2000/svg" width="19.644" height="25.406" viewBox="0 0 19.644 25.406"><defs><style>.a{fill:#3544e6;}</style></defs><path class="a" d="M19.678,1H6.967A3.467,3.467,0,0,0,3.5,4.467V25.036a1.271,1.271,0,0,0,2.1.959l3.189-2.739,4.391,2.935A1.271,1.271,0,0,0,14.72,26.1l3.224-2.762,3.1,2.658a1.271,1.271,0,0,0,2.1-.959V4.467A3.467,3.467,0,0,0,19.678,1Zm1.156,21.759-2.057-1.768a1.294,1.294,0,0,0-1.664,0l-3.3,2.831L9.416,20.887a1.283,1.283,0,0,0-1.537.092L5.811,22.771V4.467A1.156,1.156,0,0,1,6.967,3.311H19.678a1.156,1.156,0,0,1,1.156,1.156Z" transform="translate(-3.5 -1)"/><path class="a" d="M7.656,7.311h8.089a1.156,1.156,0,1,0,0-2.311H7.656a1.156,1.156,0,0,0,0,2.311Z" transform="translate(-3.033 -0.378)"/><path class="a" d="M7.656,11.311h4.622a1.156,1.156,0,1,0,0-2.311H7.656a1.156,1.156,0,0,0,0,2.311Z" transform="translate(-3.033 0.244)"/><path class="a" d="M16.9,13H7.656a1.156,1.156,0,1,0,0,2.311H16.9A1.156,1.156,0,1,0,16.9,13Z" transform="translate(-3.033 0.867)"/></svg>