<svg xmlns="http://www.w3.org/2000/svg" width="22.087" height="21.177" viewBox="0 0 22.087 21.177"><defs><style>.a{fill:#0e1317;fill-rule:evenodd;}</style></defs><g transform="translate(-0.956 -1.395)"><path class="a" d="M12,5.22,10.53,9.76a1.21,1.21,0,0,1-1.14.83H4.62l3.85,2.8a1.21,1.21,0,0,1,.44,1.34L7.44,19.27l3.85-2.81a1.23,1.23,0,0,1,1.42,0l3.85,2.81-1.47-4.54a1.21,1.21,0,0,1,.44-1.34l3.85-2.8H14.61a1.21,1.21,0,0,1-1.14-.83Zm-1.14-3a1.2,1.2,0,0,1,2.28,0L15.2,8.59h6.65a1.2,1.2,0,0,1,.7,2.17l-5.38,3.91L19.23,21a1.2,1.2,0,0,1-1.85,1.34L12,18.42,6.62,22.33A1.2,1.2,0,0,1,4.77,21l2.06-6.32L1.45,10.76a1.2,1.2,0,0,1,.7-2.17H8.8Z"/></g></svg>